<svg viewBox="0 0 104 65" class="h-[40px] md:h-[50px] fill-content-secondary hover:fill-purpureus" xmlns="http://www.w3.org/2000/svg"><path d="M103.776 43.1256C103.516 39.5207 101.823 35.2209 92.0128 38.0006C86.934 39.4339 82.2894 39.5207 80.2492 37.5229C80.0039 37.24 79.7859 36.9346 79.5981 36.6108C78.8167 35.0472 79.164 32.7453 81.0739 29.4878C81.4905 28.5858 82.1686 27.83 83.0202 27.3188C83.8717 26.8076 84.8574 26.5645 85.8488 26.6213C87.4115 26.6213 89.2347 26.9253 91.4051 26.8819C98.2202 26.8819 100.825 22.5386 100.564 18.5429C100.564 17.3267 98.9147 17.7176 95.9195 16.9793C92.9244 16.2409 90.5803 16.6318 90.016 12.636C89.6557 11.4566 88.9502 10.4123 87.9907 9.63808C87.0312 8.86386 85.8618 8.39525 84.6334 8.29279C82.2459 7.90189 77.1238 5.46968 73.3039 8.50995L70.0048 7.07668C67.791 6.55549 67.9647 8.07562 65.664 8.81398C63.3634 9.55233 60.1512 7.72817 61.3232 10.1604C62.0424 11.5866 63.245 12.7104 64.7162 13.331C66.1873 13.9516 67.8311 14.0286 69.3537 13.5481C67.0097 25.4052 55.5933 28.098 46.1303 27.7071C43.1046 27.6015 40.13 26.8948 37.3798 25.6282C34.6295 24.3616 32.1585 22.5604 30.1104 20.3293C28.0624 18.0983 26.4783 15.482 25.4503 12.6326C24.4223 9.78332 23.9709 6.75788 24.1224 3.73238C24.1224 0.0840462 23.0372 -0.958334 21.9086 0.909263C21.4685 1.71764 21.1331 2.57872 20.9102 3.47178C20.6931 3.81924 20.6931 4.25357 20.6931 4.68789C20.0833 8.90588 20.5879 13.2101 22.1567 17.1724C23.7255 21.1347 26.3038 24.617 29.6352 27.2728C27.6625 29.0892 26.2982 31.4705 25.7285 34.0917C25.346 35.9543 25.346 37.8753 25.7285 39.7379L25.9455 40.5197C26.7703 44.4286 19.4777 47.0346 16.3089 47.5558H15.6144C15.1814 47.5993 14.7451 47.5993 14.3121 47.5558C13.8505 47.607 13.3847 47.607 12.9231 47.5558C11.0131 47.5558 9.62403 47.5558 8.58224 52.4636C6.84591 59.1088 1.81056 57.6321 0.595127 59.4997C-1.27143 62.54 1.55011 64.7985 4.93595 64.9722C6.10472 65.066 7.28038 64.9219 8.39199 64.5487C9.5036 64.1755 10.5281 63.5808 11.4038 62.8006C17.6111 57.1978 14.616 54.7221 20.7799 55.113C21.6047 55.113 22.5163 55.113 23.6449 55.417C30.46 56.3291 35.3217 57.719 42.05 50.4657C42.4125 49.9399 42.8191 49.4458 43.2654 48.989C43.6171 48.6971 44.0126 48.4626 44.4374 48.2941C44.838 48.2085 45.2522 48.2085 45.6528 48.2941C50.3987 50.3964 55.5776 51.3345 60.7589 51.0304C63.3542 50.0888 65.7211 48.6086 67.7042 46.6871C67.7042 46.6871 68.746 45.775 69.4405 46.6871C70.1351 47.5992 71.2203 49.3799 72.2187 50.4223C74.5627 52.9848 74.6061 51.9424 79.5981 49.9011L81.4646 48.989C94.4871 44.2549 94.2266 42.7347 96.7877 47.9032C97.2652 48.8587 98.9581 48.9456 100.564 48.2941C101.617 47.8922 102.516 47.1674 103.131 46.2234C103.747 45.2795 104.049 44.1647 103.993 43.0388"></path></svg>